<svg width="16" height="16" viewBox="0 0 16 16" fill="none" xmlns="http://www.w3.org/2000/svg">
<g id="Group 3402">
<path id="Rectangle 34624162 (Stroke)" d="M2.00011 10.4903V5.50011C2.00011 4.85713 1.99187 4.36935 2.11827 3.95226C2.38489 3.07335 3.07335 2.38489 3.95226 2.11827C4.36935 1.99187 4.85713 2.00011 5.50011 2.00011H7.50011C7.91432 2.00011 8.25011 2.3359 8.25011 2.75011C8.25011 3.16432 7.91432 3.50011 7.50011 3.50011H5.50011C4.74776 3.50011 4.53743 3.50814 4.38683 3.55382C3.98762 3.67505 3.67505 3.98762 3.55382 4.38683C3.50814 4.53743 3.50011 4.74776 3.50011 5.50011V10.4903C3.50011 11.0916 3.50086 11.4955 3.52745 11.8058C3.55325 12.1064 3.5996 12.2495 3.6505 12.3439C3.76625 12.5582 3.94199 12.734 4.15636 12.8497C4.2507 12.9006 4.39379 12.947 4.69445 12.9728C5.0047 12.9994 5.40861 13.0001 6.00988 13.0001H11.0001C11.7525 13.0001 11.9628 12.9921 12.1134 12.9464C12.5126 12.8252 12.8252 12.5126 12.9464 12.1134C12.9921 11.9628 13.0001 11.7525 13.0001 11.0001V7.62511C13.0001 7.2109 13.3359 6.87511 13.7501 6.87511C14.1643 6.87511 14.5001 7.2109 14.5001 7.62511V11.0001C14.5001 11.6431 14.5084 12.1309 14.3819 12.548C14.1153 13.4269 13.4269 14.1153 12.548 14.3819C12.1309 14.5084 11.6431 14.5001 11.0001 14.5001H6.00988C5.43461 14.5001 4.95569 14.5003 4.56652 14.4669C4.16792 14.4327 3.79459 14.3589 3.44445 14.17C2.97225 13.9153 2.58497 13.528 2.33019 13.0558C2.14127 12.7056 2.06749 12.3323 2.03331 11.9337C1.99995 11.5445 2.00011 11.0656 2.00011 10.4903Z" fill="black"/>
<path id="Vector" d="M14.1852 1.32131L14.5379 1.674C15.0239 2.1606 14.9504 3.0232 14.3723 3.60066L8.09907 9.87393L5.7426 10.7359C5.4467 10.8447 5.15856 10.7037 5.09998 10.4221C5.08018 10.32 5.0895 10.2143 5.12688 10.1172L6.00563 7.74043L12.2586 1.48689C12.8366 0.909432 13.6992 0.834709 14.1852 1.32131Z" fill="#222222"/>
</g>
</svg>
