<svg width="16" height="16" viewBox="0 0 16 16" fill="none" xmlns="http://www.w3.org/2000/svg">
<g id="Group 3404">
<path id="Vector (Stroke)" d="M13.2129 7.57617C13.2129 4.95326 10.9394 2.75 8.03711 2.75C5.13493 2.75006 2.86133 4.95329 2.86133 7.57617C2.86148 10.1989 5.13502 12.4013 8.03711 12.4014C10.9393 12.4014 13.2127 10.199 13.2129 7.57617ZM14.7129 7.57617C14.7127 11.1121 11.6803 13.9014 8.03711 13.9014C4.39392 13.9013 1.36148 11.1121 1.36133 7.57617C1.36133 4.04015 4.39383 1.25006 8.03711 1.25C11.6804 1.25 14.7129 4.04011 14.7129 7.57617Z" fill="#222222"/>
<path id="Vector (Stroke)_2" d="M11.7156 10.9607C12.021 10.6811 12.4954 10.7015 12.7752 11.0066L15.0525 13.493C15.3322 13.7983 15.3118 14.2727 15.0066 14.5525C14.7013 14.8322 14.2269 14.8118 13.9471 14.5066L11.6697 12.0203C11.39 11.715 11.4105 11.2406 11.7156 10.9607Z" fill="#222222"/>
</g>
</svg>
