<svg width="12" height="12" viewBox="0 0 12 12" fill="none" xmlns="http://www.w3.org/2000/svg">
<g id="Group 3349">
<path id="Union" d="M6 0C9.3084 0 12 2.6916 12 6C12 9.3084 9.3084 12 6 12C2.6916 12 0 9.3084 0 6C1.29317e-07 2.6916 2.6916 1.29313e-07 6 0ZM6 1.2002C3.3534 1.2002 1.2002 3.3534 1.2002 6C1.2002 8.6466 3.3534 10.7998 6 10.7998C8.6466 10.7998 10.7998 8.6466 10.7998 6C10.7998 3.3534 8.6466 1.2002 6 1.2002ZM6 3C6.33124 3 6.60038 3.26842 6.60059 3.59961V5.75195L7.80078 6.95117C8.03496 7.18535 8.03477 7.5655 7.80078 7.7998C7.5665 8.03408 7.18643 8.03408 6.95215 7.7998L5.40039 6.24805V3.59961C5.4006 3.26855 5.66894 3.00021 6 3Z" fill="#777777"/>
</g>
</svg>
