<svg width="40" height="40" viewBox="0 0 40 40" fill="none" xmlns="http://www.w3.org/2000/svg">
<g id="icon">
<g id="Group 427318871">
<path id="Vector" d="M19.9886 5.21833C11.2698 -2.17537 0.184037 4.32095 0.00225422 13.1278C-0.0440704 15.3722 0.62416 17.5585 1.95429 19.574H10.5758L12.1093 17.0959C12.5546 16.3764 13.6322 16.3533 14.1027 17.0705L17.3381 22L22.0544 12.3467C22.4657 11.5044 23.6915 11.4777 24.1451 12.2944L28.1879 19.574H38.023C45.3085 8.53398 30.9098 -4.04292 19.9886 5.21833Z" fill="#00AAA1"/>
<path id="Vector_2" d="M26.3956 21.2682L23.1562 15L18.5753 25.0759C18.1856 25.9331 17.0393 26.0076 16.5506 25.2072L13.2313 19.7727L12.3419 21.317C12.1325 21.6806 11.7554 21.9031 11.3484 21.9031H4C4.23035 22.1543 3.00266 20.8777 19.1828 37.6486C19.6347 38.1171 20.3652 38.1172 20.8172 37.6486C36.7484 21.1357 35.7701 22.1538 36 21.9031H27.4158C26.9895 21.9032 26.5977 21.6593 26.3956 21.2682Z" fill="#00AAA1"/>
</g>
</g>
</svg>
