<svg width="40" height="40" viewBox="0 0 40 40" fill="none" xmlns="http://www.w3.org/2000/svg">
<g id="Group 3615">
<path id="Vector" d="M27.4465 3.64264V0.000244141H25.0465V4.34069C23.4984 5.0437 22.1495 6.1952 21.1839 7.69556L20.6465 8.53063L20.1091 7.69556C19.1436 6.19528 17.7946 5.0437 16.2465 4.34069V0.000244141H13.8465V3.64264C13.4515 3.58745 13.051 3.55824 12.6465 3.55824V9.02785C12.6465 11.774 14.7955 14.0002 17.4465 14.0002H23.8465C26.4975 14.0002 28.6465 11.774 28.6465 9.02785V3.55824C28.2421 3.55824 27.8415 3.58745 27.4465 3.64264Z" fill="#00AAA1"/>
<path id="Vector_2" d="M26.2113 16.0002H15.0816L1.64648 37.1048V37.1848C14.038 40.9387 27.2549 40.9387 39.6465 37.1848V37.1048L26.2113 16.0002Z" fill="#00AAA1"/>
</g>
</svg>
