<svg width="40" height="40" viewBox="0 0 40 40" fill="none" xmlns="http://www.w3.org/2000/svg">
<g id="Group 3616">
<path id="Vector" d="M12.0837 27.8168C11.026 27.2101 10.3113 26.0703 10.3113 24.7656C10.3113 19.3808 14.692 15 20.0767 15H24.101L24.2905 11.875H1.48828L3.12612 38.8989C3.16366 39.5175 3.67603 40 4.29583 40H11.4862C10.7489 39.0201 10.3113 37.8024 10.3113 36.4844C10.3113 34.9649 11.2805 33.6676 12.633 33.1778C12.1536 32.4426 11.8738 31.5662 11.8738 30.625C11.8738 29.6829 12.1542 28.8055 12.6346 28.0698C12.2525 27.9837 12.0404 27.8992 12.0837 27.8168Z" fill="#00AAA1"/>
<path id="Vector_2" d="M12.8891 9.53156C12.89 9.53156 12.8909 9.53125 12.8918 9.53125H24.6088C25.256 9.53125 25.7806 9.00665 25.7806 8.35938C25.7806 7.7121 25.256 7.1875 24.6088 7.1875H15.0537L18.2125 2.34375H22.2651C22.9123 2.34375 23.4369 1.81915 23.4369 1.17188C23.4369 0.524597 22.9123 0 22.2651 0H17.5777C17.1816 0 16.8123 0.19989 16.5963 0.531616L12.2556 7.1875H1.17185C0.524584 7.1875 0 7.7121 0 8.35938C0 9.00665 0.524584 9.53125 1.17185 9.53125H12.8848C12.8863 9.53125 12.8879 9.53156 12.8891 9.53156Z" fill="#00AAA1"/>
<path id="Vector_3" d="M12.6562 24.7656C12.6562 25.4129 13.1808 25.9375 13.8281 25.9375H38.8275C39.4748 25.9375 39.9993 25.4129 39.9993 24.7656C39.9993 20.6732 36.6699 17.3438 32.5776 17.3438H20.0779C15.9856 17.3438 12.6562 20.6732 12.6562 24.7656Z" fill="#00AAA1"/>
<path id="Vector_4" d="M16.5624 28.2812C15.2679 28.2812 14.2188 29.3304 14.2188 30.625C14.2188 31.9196 15.2679 32.9688 16.5624 32.9688H36.0932C37.3877 32.9688 38.4369 31.9196 38.4369 30.625C38.4369 29.3304 37.3877 28.2812 36.0932 28.2812H16.5624Z" fill="#00AAA1"/>
<path id="Vector_5" d="M38.8275 35.3125H13.8281C13.1808 35.3125 12.6562 35.8371 12.6562 36.4844C12.6562 38.4229 14.2334 40 16.1718 40H36.4838C38.4222 40 39.9993 38.4229 39.9993 36.4844C39.9993 35.8371 39.4748 35.3125 38.8275 35.3125Z" fill="#00AAA1"/>
</g>
</svg>
