<svg width="40" height="32" viewBox="0 0 40 32" fill="none" xmlns="http://www.w3.org/2000/svg">
<g id="Group">
<path id="Vector" d="M36.6283 5.48117H31.3168L30.3536 2.34921C29.9247 0.954568 28.6128 0 27.1251 0H19.9854C18.4977 0 17.1859 0.954568 16.7569 2.34921L15.7936 5.48123H3.37169C1.50954 5.48117 0 6.95912 0 8.78219V28.6989C0 30.522 1.50954 32 3.37169 32H36.6283C38.4905 32 40 30.522 40 28.6989V8.78219C39.9999 6.95912 38.4903 5.48117 36.6283 5.48117ZM23.5318 27.3704C18.5663 27.3704 14.5408 23.4292 14.5408 18.5675C14.5408 13.7059 18.5663 9.7646 23.5318 9.7646C28.4974 9.7646 32.523 13.7059 32.523 18.5675C32.523 23.4292 28.4974 27.3704 23.5318 27.3704Z" fill="#00AAA1"/>
<path id="Vector_2" d="M23.4999 12C19.9102 12 17 14.9102 17 18.4999C17 22.0896 19.9102 25 23.4999 25C27.0896 25 30 22.0896 30 18.4999C30 14.9102 27.0897 12 23.4999 12ZM28.0268 18.246C27.4145 18.8583 25.8891 18.3255 24.6195 17.0561C23.3501 15.7865 22.8175 14.2611 23.4298 13.6488C24.0421 13.0365 25.5675 13.5691 26.8369 14.8387C28.1063 16.1081 28.6391 17.6336 28.0268 18.246Z" fill="#00AAA1"/>
<path id="Vector_3" d="M11.051 3.8284C11.051 3.00618 10.3841 2.33984 9.56143 2.33984H6.35496C5.5323 2.33984 4.86523 3.00631 4.86523 3.8284V4.57918H11.0509V3.8284H11.051Z" fill="#00AAA1"/>
</g>
</svg>
