<svg width="28" height="28" viewBox="0 0 28 28" fill="none" xmlns="http://www.w3.org/2000/svg">
<g id="Group 427318838">
<path id="Vector" d="M12.3682 21H15.1889V14.6125H17.5475L17.9037 12.1275H15.1889V10.535C15.1889 9.8175 15.4103 9.3275 16.5463 9.3275H18V7.09625C17.7497 7.07 16.8929 7 15.8917 7C13.793 7 12.3682 8.16375 12.3682 10.29V12.1275H10V14.6125H12.3682V21Z" fill="#777777"/>
<g id="Group 3601">
<path id="Rectangle 3063 (Stroke)" d="M21.5996 26.5V28H6.40039V26.5H21.5996ZM26.5 21.5996V6.40039C26.5 5.25553 26.4985 4.48629 26.4502 3.89453C26.4033 3.32077 26.3198 3.04631 26.2275 2.86523C25.9879 2.39483 25.6052 2.01214 25.1348 1.77246C24.9537 1.68023 24.6792 1.59671 24.1055 1.5498C23.5137 1.50146 22.7445 1.5 21.5996 1.5H6.40039C5.25553 1.5 4.48629 1.50146 3.89453 1.5498C3.32077 1.59671 3.04631 1.68023 2.86523 1.77246C2.39483 2.01214 2.01214 2.39483 1.77246 2.86523C1.68023 3.04631 1.59671 3.32077 1.5498 3.89453C1.50146 4.48629 1.5 5.25553 1.5 6.40039V21.5996C1.5 22.7445 1.50146 23.5137 1.5498 24.1055C1.59671 24.6792 1.68023 24.9537 1.77246 25.1348C2.01214 25.6052 2.39483 25.9879 2.86523 26.2275C3.04631 26.3198 3.32077 26.4033 3.89453 26.4502C4.48629 26.4985 5.25553 26.5 6.40039 26.5V28L4.91602 27.9932C3.72431 27.9744 2.96088 27.9041 2.34766 27.6406L2.18359 27.5645C1.52512 27.2289 0.974134 26.7183 0.589844 26.0918L0.435547 25.8164C-0.000427067 24.9608 1.63278e-09 23.8398 1.63278e-09 21.5996V6.40039C1.63278e-09 4.16018 -0.000427067 3.03924 0.435547 2.18359C0.819016 1.43109 1.43109 0.819016 2.18359 0.435547C2.82525 0.108606 3.61607 0.0272847 4.91602 0.00683594L6.40039 1.63278e-09H21.5996C23.8398 1.63278e-09 24.9608 -0.000427067 25.8164 0.435547C26.5689 0.819016 27.181 1.43109 27.5645 2.18359C28.0004 3.03924 28 4.16018 28 6.40039V21.5996C28 23.8398 28.0004 24.9608 27.5645 25.8164L27.4102 26.0918C27.0259 26.7183 26.4749 27.2289 25.8164 27.5645L25.6523 27.6406C24.816 27.9999 23.6999 28 21.5996 28V26.5C22.7445 26.5 23.5137 26.4985 24.1055 26.4502C24.6792 26.4033 24.9537 26.3198 25.1348 26.2275C25.6052 25.9879 25.9879 25.6052 26.2275 25.1348C26.3198 24.9537 26.4033 24.6792 26.4502 24.1055C26.4985 23.5137 26.5 22.7445 26.5 21.5996Z" fill="#777777"/>
</g>
</g>
</svg>
