<svg width="18" height="18" viewBox="0 0 18 18" fill="none" xmlns="http://www.w3.org/2000/svg">
<path id="Star 1" d="M8.46972 1.00174C8.69507 0.576026 9.30493 0.576027 9.53028 1.00174L11.9248 5.52518C12.0116 5.6891 12.1693 5.80367 12.352 5.83554L17.394 6.71506C17.8685 6.79783 18.057 7.37783 17.7217 7.72372L14.1596 11.3989C14.0305 11.532 13.9703 11.7174 13.9965 11.901L14.7181 16.968C14.786 17.4449 14.2926 17.8034 13.86 17.5914L9.26401 15.3394C9.09746 15.2578 8.90254 15.2578 8.73599 15.3394L4.13997 17.5914C3.70742 17.8034 3.21404 17.4449 3.28195 16.968L4.00354 11.901C4.02969 11.7174 3.96946 11.532 3.84038 11.3989L0.278284 7.72372C-0.0569588 7.37783 0.131496 6.79783 0.606018 6.71506L5.64801 5.83554C5.83072 5.80367 5.98842 5.6891 6.07519 5.52518L8.46972 1.00174Z" fill="#FFD815"/>
</svg>
