<svg width="28" height="28" viewBox="0 0 28 28" fill="none" xmlns="http://www.w3.org/2000/svg">
<g id="Group 427318837">
<g id="Group">
<path id="Vector" d="M22 9.42051C21.4112 9.66051 20.7792 9.82551 20.1152 9.89751C20.7936 9.52251 21.312 8.92851 21.5584 8.22201C20.9119 8.57521 20.2066 8.8237 19.472 8.95701C19.163 8.65337 18.7913 8.41193 18.3795 8.24739C17.9677 8.08286 17.5244 7.99869 17.0768 8.00002C15.264 8.00002 13.7952 9.35751 13.7952 11.03C13.7952 11.267 13.824 11.498 13.88 11.72C12.5797 11.6621 11.3066 11.3508 10.1418 10.8058C8.97708 10.2609 7.94628 9.49431 7.1152 8.55501C6.8233 9.01566 6.66962 9.54171 6.6704 10.0775C6.6704 11.1275 7.2512 12.0575 8.1312 12.599C7.61031 12.5837 7.10058 12.4537 6.6432 12.2195V12.257C6.64814 12.9612 6.91328 13.642 7.39347 14.1835C7.87365 14.7251 8.53921 15.0938 9.2768 15.227C8.79257 15.347 8.28591 15.3645 7.7936 15.278C8.0082 15.8838 8.41868 16.4119 8.96804 16.7891C9.5174 17.1662 10.1784 17.3736 10.8592 17.3825C9.69114 18.2263 8.25702 18.6822 6.7824 18.6785C6.5184 18.6785 6.2576 18.6635 6 18.6365C7.50475 19.5294 9.24954 20.0024 11.0304 20C17.0688 20 20.3696 15.383 20.3696 11.378L20.3584 10.985C21.0021 10.5609 21.5583 10.0308 22 9.42051Z" fill="#777777"/>
</g>
<path id="Rectangle 3062 (Stroke)" d="M21.5996 26.5V28H6.40039V26.5H21.5996ZM26.5 21.5996V6.40039C26.5 5.25553 26.4985 4.48629 26.4502 3.89453C26.4033 3.32077 26.3198 3.04631 26.2275 2.86523C25.9879 2.39483 25.6052 2.01214 25.1348 1.77246C24.9537 1.68023 24.6792 1.59671 24.1055 1.5498C23.5137 1.50146 22.7445 1.5 21.5996 1.5H6.40039C5.25553 1.5 4.48629 1.50146 3.89453 1.5498C3.32077 1.59671 3.04631 1.68023 2.86523 1.77246C2.39483 2.01214 2.01214 2.39483 1.77246 2.86523C1.68023 3.04631 1.59671 3.32077 1.5498 3.89453C1.50146 4.48629 1.5 5.25553 1.5 6.40039V21.5996C1.5 22.7445 1.50146 23.5137 1.5498 24.1055C1.59671 24.6792 1.68023 24.9537 1.77246 25.1348C2.01214 25.6052 2.39483 25.9879 2.86523 26.2275C3.04631 26.3198 3.32077 26.4033 3.89453 26.4502C4.48629 26.4985 5.25553 26.5 6.40039 26.5V28L4.91602 27.9932C3.72431 27.9744 2.96088 27.9041 2.34766 27.6406L2.18359 27.5645C1.52512 27.2289 0.974134 26.7183 0.589844 26.0918L0.435547 25.8164C-0.000427067 24.9608 1.63278e-09 23.8398 1.63278e-09 21.5996V6.40039C1.63278e-09 4.16018 -0.000427067 3.03924 0.435547 2.18359C0.819016 1.43109 1.43109 0.819016 2.18359 0.435547C2.82525 0.108606 3.61607 0.0272847 4.91602 0.00683594L6.40039 1.63278e-09H21.5996C23.8398 1.63278e-09 24.9608 -0.000427067 25.8164 0.435547C26.5689 0.819016 27.181 1.43109 27.5645 2.18359C28.0004 3.03924 28 4.16018 28 6.40039V21.5996C28 23.8398 28.0004 24.9608 27.5645 25.8164L27.4102 26.0918C27.0259 26.7183 26.4749 27.2289 25.8164 27.5645L25.6523 27.6406C24.816 27.9999 23.6999 28 21.5996 28V26.5C22.7445 26.5 23.5137 26.4985 24.1055 26.4502C24.6792 26.4033 24.9537 26.3198 25.1348 26.2275C25.6052 25.9879 25.9879 25.6052 26.2275 25.1348C26.3198 24.9537 26.4033 24.6792 26.4502 24.1055C26.4985 23.5137 26.5 22.7445 26.5 21.5996Z" fill="#777777"/>
</g>
</svg>
