<svg width="28" height="28" viewBox="0 0 28 28" fill="none" xmlns="http://www.w3.org/2000/svg">
<g id="Group 427318836">
<path id="Vector" d="M19.5005 14.0559C19.7921 14.2814 19.9973 14.5526 20.1161 14.8695C20.2349 15.1864 20.2835 15.5166 20.2619 15.8604C20.2403 16.2041 20.1647 16.5478 20.0351 16.8915C19.9055 17.2352 19.7381 17.5467 19.5329 17.826C19.1656 18.3308 18.7498 18.7605 18.2853 19.1149C17.8209 19.4694 17.3402 19.7648 16.8434 20.0011C16.3465 20.2374 15.847 20.4227 15.3447 20.5569C14.8425 20.6912 14.3699 20.7905 13.9271 20.855C13.4842 20.9194 13.0873 20.9597 12.7363 20.9758C12.3852 20.9919 12.1125 21 11.9181 21C11.7237 21 11.4644 20.9866 11.1404 20.9597C10.8164 20.9329 10.4572 20.8792 10.063 20.7986C9.66877 20.718 9.25563 20.6053 8.82358 20.4603C8.39154 20.3153 7.9703 20.1246 7.55986 19.8883C7.14942 19.652 6.75788 19.362 6.38524 19.0183C6.0126 18.6745 5.69667 18.261 5.43744 17.7777C5.26463 17.4662 5.14851 17.1332 5.08911 16.7787C5.0297 16.4243 5 15.9731 5 15.4253C5 15.189 5.0405 14.9205 5.12151 14.6198C5.20252 14.319 5.34563 13.986 5.55086 13.6208C5.75608 13.2556 6.0369 12.8582 6.39334 12.4286C6.74977 11.9989 7.20342 11.5263 7.75428 11.0107C8.29433 10.5059 8.85329 10.0575 9.43114 9.66541C10.009 9.27336 10.6274 8.96992 11.2862 8.7551C11.5887 8.64769 11.9235 8.58861 12.2907 8.57787C12.658 8.56713 12.9604 8.62621 13.198 8.7551C13.306 8.87325 13.4086 8.99409 13.5058 9.11762C13.6031 9.24114 13.6679 9.3942 13.7003 9.5768C13.7327 9.72717 13.7354 9.87218 13.7084 10.0118C13.6814 10.1515 13.6517 10.2911 13.6193 10.4307C13.5869 10.5704 13.5599 10.7046 13.5383 10.8335C13.5167 10.9624 13.5275 11.0806 13.5707 11.188C13.7543 11.2095 13.9325 11.2014 14.1053 11.1638C14.2781 11.1262 14.4455 11.0779 14.6076 11.0188C14.7696 10.9597 14.9343 10.898 15.1017 10.8335C15.2691 10.7691 15.4446 10.7207 15.6283 10.6885C15.9199 10.6348 16.2088 10.6106 16.495 10.616C16.7813 10.6214 17.0405 10.6617 17.2727 10.7368C17.505 10.812 17.6967 10.9275 17.8479 11.0832C17.9991 11.239 18.0909 11.4404 18.1233 11.6874C18.1449 11.8378 18.1341 11.9774 18.0909 12.1063C18.0477 12.2352 18.0018 12.3561 17.9532 12.4689C17.9046 12.5816 17.8668 12.6971 17.8398 12.8153C17.8128 12.9334 17.8209 13.0569 17.8641 13.1858C17.8965 13.261 17.9748 13.3308 18.099 13.3953C18.2232 13.4597 18.3663 13.5242 18.5284 13.5886C18.6904 13.6531 18.8605 13.7229 19.0387 13.7981C19.2169 13.8733 19.3708 13.9592 19.5005 14.0559ZM15.4176 19.0666C15.6985 18.8947 15.982 18.6584 16.2682 18.3577C16.5545 18.0569 16.7867 17.7213 16.9649 17.3507C17.1431 16.9801 17.243 16.5827 17.2646 16.1584C17.2862 15.7342 17.1782 15.3072 16.9406 14.8776C16.7354 14.5231 16.4842 14.2223 16.1872 13.9753C15.8902 13.7282 15.5581 13.5322 15.1908 13.3872C14.8236 13.2422 14.432 13.1375 14.0162 13.073C13.6004 13.0086 13.1764 12.9764 12.7444 12.9764C11.9127 12.9764 11.1755 13.0623 10.5329 13.2342C9.89019 13.406 9.33393 13.6316 8.86409 13.9108C8.39424 14.1901 8.0135 14.507 7.72187 14.8614C7.43024 15.2159 7.22502 15.5757 7.10621 15.9409C6.9874 16.2954 6.9523 16.6472 7.0009 16.9962C7.0495 17.3453 7.16022 17.6756 7.33303 17.9871C7.50585 18.2986 7.72997 18.5779 8.0054 18.8249C8.28083 19.072 8.58596 19.2707 8.92079 19.4211C9.53645 19.6896 10.1656 19.8588 10.8083 19.9286C11.4509 19.9984 12.0639 20.0011 12.6472 19.9366C13.2304 19.8722 13.7624 19.7594 14.243 19.5983C14.7237 19.4372 15.1152 19.2599 15.4176 19.0666ZM13.2952 13.9753C13.5113 14.0612 13.7165 14.1579 13.9109 14.2653C14.1053 14.3727 14.2781 14.5177 14.4293 14.7003C14.5374 14.8292 14.6319 14.9903 14.7129 15.1837C14.7939 15.377 14.8506 15.5838 14.883 15.804C14.9154 16.0242 14.9235 16.247 14.9073 16.4726C14.8911 16.6982 14.8398 16.9023 14.7534 17.0849C14.667 17.2782 14.5617 17.4742 14.4374 17.6729C14.3132 17.8716 14.162 18.0569 13.9838 18.2288C13.8056 18.4006 13.5923 18.5537 13.3438 18.688C13.0954 18.8222 12.793 18.9216 12.4365 18.986C11.7885 19.1042 11.1674 19.0451 10.5734 18.8088C9.9793 18.5725 9.51485 18.1805 9.18002 17.6327C9.05041 17.2137 8.9802 16.8432 8.9694 16.5209C8.9586 16.1987 9.045 15.8496 9.22862 15.4737C9.36904 15.1837 9.58236 14.9125 9.86859 14.66C10.1548 14.4076 10.4842 14.2035 10.8569 14.0478C11.2295 13.8921 11.6265 13.8008 12.0477 13.7739C12.4689 13.747 12.8848 13.8142 13.2952 13.9753ZM10.7192 17.9388C11.1188 17.971 11.4239 17.8743 11.6346 17.6488C11.8452 17.4232 11.9586 17.1708 11.9748 16.8915C11.991 16.6122 11.91 16.3625 11.7318 16.1423C11.5536 15.9221 11.2754 15.8335 10.8974 15.8765C10.6058 15.9087 10.3789 16.0322 10.2169 16.247C10.0549 16.4619 9.9631 16.6901 9.94149 16.9318C9.91989 17.1735 9.9712 17.3963 10.0954 17.6004C10.2196 17.8045 10.4275 17.9173 10.7192 17.9388ZM17.3456 6C18.1341 6 18.8713 6.10473 19.5572 6.31418C20.243 6.52363 20.8425 6.82707 21.3555 7.22449C21.8686 7.62191 22.2709 8.10526 22.5626 8.67454C22.8542 9.24382 23 9.88829 23 10.6079C23 10.9624 22.9136 11.2282 22.7408 11.4055C22.568 11.5827 22.3816 11.674 22.1818 11.6794C21.982 11.6847 21.7957 11.6096 21.6229 11.4538C21.45 11.2981 21.3636 11.0591 21.3636 10.7368C21.3636 10.3072 21.2448 9.89903 21.0072 9.51235C20.7696 9.12567 20.4563 8.78733 20.0675 8.49731C19.6787 8.2073 19.2331 7.97905 18.7309 7.81257C18.2286 7.64608 17.7183 7.56284 17.1998 7.56284C16.865 7.56284 16.6166 7.48228 16.4545 7.32116C16.2925 7.16004 16.2169 6.98013 16.2277 6.78142C16.2385 6.58271 16.3384 6.40279 16.5275 6.24168C16.7165 6.08056 16.9892 6 17.3456 6ZM17.3456 8.57787C18.3501 8.57787 19.1116 8.83298 19.6301 9.34318C20.1485 9.85338 20.4077 10.6241 20.4077 11.6552C20.4077 11.9774 20.3537 12.2057 20.2457 12.34C20.1377 12.4742 20.0189 12.5333 19.8893 12.5172C19.7597 12.5011 19.6409 12.4232 19.5329 12.2836C19.4248 12.1439 19.3708 11.956 19.3708 11.7197C19.3708 11.0859 19.1872 10.5811 18.82 10.2052C18.4527 9.82922 17.9613 9.64125 17.3456 9.64125C17.1404 9.64125 16.9892 9.58485 16.892 9.47207C16.7948 9.35929 16.7462 9.23845 16.7462 9.10956C16.7462 8.98067 16.7975 8.85983 16.9001 8.74705C17.0027 8.63426 17.1512 8.57787 17.3456 8.57787Z" fill="#777777"/>
<path id="Rectangle 3063 (Stroke)" d="M21.5996 26.5V28H6.40039V26.5H21.5996ZM26.5 21.5996V6.40039C26.5 5.25553 26.4985 4.48629 26.4502 3.89453C26.4033 3.32077 26.3198 3.04631 26.2275 2.86523C25.9879 2.39483 25.6052 2.01214 25.1348 1.77246C24.9537 1.68023 24.6792 1.59671 24.1055 1.5498C23.5137 1.50146 22.7445 1.5 21.5996 1.5H6.40039C5.25553 1.5 4.48629 1.50146 3.89453 1.5498C3.32077 1.59671 3.04631 1.68023 2.86523 1.77246C2.39483 2.01214 2.01214 2.39483 1.77246 2.86523C1.68023 3.04631 1.59671 3.32077 1.5498 3.89453C1.50146 4.48629 1.5 5.25553 1.5 6.40039V21.5996C1.5 22.7445 1.50146 23.5137 1.5498 24.1055C1.59671 24.6792 1.68023 24.9537 1.77246 25.1348C2.01214 25.6052 2.39483 25.9879 2.86523 26.2275C3.04631 26.3198 3.32077 26.4033 3.89453 26.4502C4.48629 26.4985 5.25553 26.5 6.40039 26.5V28L4.91602 27.9932C3.72431 27.9744 2.96088 27.9041 2.34766 27.6406L2.18359 27.5645C1.52512 27.2289 0.974134 26.7183 0.589844 26.0918L0.435547 25.8164C-0.000427067 24.9608 1.63278e-09 23.8398 1.63278e-09 21.5996V6.40039C1.63278e-09 4.16018 -0.000427067 3.03924 0.435547 2.18359C0.819016 1.43109 1.43109 0.819016 2.18359 0.435547C2.82525 0.108606 3.61607 0.0272847 4.91602 0.00683594L6.40039 1.63278e-09H21.5996C23.8398 1.63278e-09 24.9608 -0.000427067 25.8164 0.435547C26.5689 0.819016 27.181 1.43109 27.5645 2.18359C28.0004 3.03924 28 4.16018 28 6.40039V21.5996C28 23.8398 28.0004 24.9608 27.5645 25.8164L27.4102 26.0918C27.0259 26.7183 26.4749 27.2289 25.8164 27.5645L25.6523 27.6406C24.816 27.9999 23.6999 28 21.5996 28V26.5C22.7445 26.5 23.5137 26.4985 24.1055 26.4502C24.6792 26.4033 24.9537 26.3198 25.1348 26.2275C25.6052 25.9879 25.9879 25.6052 26.2275 25.1348C26.3198 24.9537 26.4033 24.6792 26.4502 24.1055C26.4985 23.5137 26.5 22.7445 26.5 21.5996Z" fill="#777777"/>
</g>
</svg>
