<svg width="28" height="28" viewBox="0 0 28 28" fill="none" xmlns="http://www.w3.org/2000/svg">
<g id="Group 427318835">
<rect id="Rectangle 3064" width="28" height="28" rx="4" fill="#00AAA1"/>
<path id="Vector" d="M17.862 10.841C18.0806 10.841 18.2962 10.8577 18.5097 10.8819C17.928 8.08131 15.0312 6 11.7249 6C8.02827 6 5 8.60502 5 11.9126C5 13.8215 6.0077 15.3894 7.69101 16.6054L7.01851 18.6973L9.36915 17.4783C10.2108 17.6501 10.8853 17.8274 11.7249 17.8274C11.9359 17.8274 12.1447 17.8166 12.3525 17.7994C12.221 17.335 12.1447 16.8479 12.1447 16.3431C12.1447 13.3059 14.6676 10.841 17.862 10.841ZM14.2468 8.95578C14.7532 8.95578 15.0884 9.30059 15.0884 9.82376C15.0884 10.3448 14.7532 10.6939 14.2468 10.6939C13.7424 10.6939 13.237 10.3448 13.237 9.82376C13.237 9.30059 13.7424 8.95578 14.2468 8.95578ZM9.54036 10.6939C9.03597 10.6939 8.52748 10.3447 8.52748 9.82374C8.52748 9.30057 9.03597 8.95576 9.54036 8.95576C10.0442 8.95576 10.3799 9.30057 10.3799 9.82374C10.3799 10.3448 10.0442 10.6939 9.54036 10.6939ZM24 16.2595C24 13.4799 21.3095 11.2144 18.2879 11.2144C15.0884 11.2144 12.5686 13.4799 12.5686 16.2595C12.5686 19.0432 15.0884 21.3039 18.2879 21.3039C18.9573 21.3039 19.6329 21.1304 20.3054 20.9559L22.1502 22L21.6442 20.263C22.9944 19.2156 24 17.8274 24 16.2595ZM16.4334 15.3894C16.0987 15.3894 15.7609 15.0451 15.7609 14.6938C15.7609 14.3474 16.0987 13.9988 16.4334 13.9988C16.9419 13.9988 17.275 14.3474 17.275 14.6938C17.275 15.0451 16.9419 15.3894 16.4334 15.3894ZM20.1321 15.3894C19.8 15.3894 19.4643 15.0451 19.4643 14.6938C19.4643 14.3474 19.8 13.9988 20.1321 13.9988C20.6365 13.9988 20.9738 14.3474 20.9738 14.6938C20.9738 15.0451 20.6365 15.3894 20.1321 15.3894Z" fill="white"/>
</g>
</svg>
