<svg width="12" height="12" viewBox="0 0 12 12" fill="none" xmlns="http://www.w3.org/2000/svg">
<path id="Star 1 (Stroke)" d="M5.64216 0.225759C5.79424 -0.0752528 6.20576 -0.0752528 6.35784 0.225759L7.97371 3.42413C8.03224 3.5399 8.13854 3.62112 8.26169 3.64371L11.6641 4.26516C11.9843 4.32368 12.1117 4.73387 11.8855 4.97844L9.4815 7.57677C9.3944 7.67094 9.3538 7.80255 9.37145 7.93237L9.85845 11.5147C9.90142 11.8308 9.6115 12.0739 9.33455 11.9794L9.27985 11.9559L6.17793 10.3636C6.06557 10.3059 5.93443 10.3059 5.82207 10.3636L2.72015 11.9559L2.66545 11.9794C2.3885 12.0739 2.09858 11.8308 2.14155 11.5147L2.62855 7.93237C2.64398 7.81881 2.61466 7.70399 2.54881 7.61406L2.5185 7.57677L0.11446 4.97844C-0.111745 4.73387 0.015677 4.32368 0.335885 4.26516L3.73831 3.64371C3.8461 3.62394 3.94067 3.55896 4.00191 3.46556L4.02629 3.42413L5.64216 0.225759ZM4.92122 3.91991C4.71632 4.32547 4.3437 4.60948 3.91228 4.68843L1.63939 5.10342L3.24472 6.83863C3.54956 7.16818 3.69195 7.62717 3.63023 8.08152L3.30468 10.4741L5.37658 9.41073L5.52684 9.34444C5.88379 9.21194 6.27928 9.2341 6.62341 9.41073L8.69466 10.4741L8.36977 8.08152C8.30805 7.62717 8.45044 7.16818 8.75528 6.83863L10.36 5.10342L8.08772 4.68843C7.6563 4.60948 7.28368 4.32547 7.07878 3.91991L6 1.78421L4.92122 3.91991Z" fill="#777777"/>
</svg>
