<svg width="20" height="20" viewBox="0 0 20 20" fill="none" xmlns="http://www.w3.org/2000/svg">
<g id="Frame">
<path id="Vector" d="M16.2227 4.91235L9.14906 11.9513C8.84456 12.2543 8.35211 12.2531 8.04911 11.9486C7.74612 11.6441 7.74733 11.1516 8.05183 10.8486L15.1575 3.77772H12.2171C11.7876 3.77772 11.4393 3.42949 11.4393 2.99995C11.4393 2.5704 11.7876 2.22217 12.2171 2.22217H15.6004C16.8032 2.22217 17.7782 3.19719 17.7782 4.39995V7.78328C17.7782 8.21283 17.43 8.56106 17.0004 8.56106C16.5709 8.56106 16.2227 8.21283 16.2227 7.78328V4.91235ZM16.2227 11.5217C16.2227 11.0921 16.5709 10.7439 17.0004 10.7439C17.43 10.7439 17.7782 11.0921 17.7782 11.5217V15.5999C17.7782 16.8027 16.8032 17.7777 15.6004 17.7777H4.40043C3.19768 17.7777 2.22266 16.8027 2.22266 15.5999V4.39995C2.22266 3.19719 3.19768 2.22217 4.40043 2.22217H8.47871C8.90824 2.22217 9.25649 2.5704 9.25649 2.99995C9.25649 3.42949 8.90824 3.77772 8.47871 3.77772H4.40043C4.05679 3.77772 3.77821 4.0563 3.77821 4.39995V15.5999C3.77821 15.9436 4.05679 16.2222 4.40043 16.2222H15.6004C15.9441 16.2222 16.2227 15.9436 16.2227 15.5999V11.5217Z" fill="#777777"/>
</g>
</svg>
