<svg width="20" height="20" viewBox="0 0 20 20" fill="none" xmlns="http://www.w3.org/2000/svg">
<g id="icon ">
<path id="Union" d="M10 2C10.5302 2 10.9599 2.42979 10.96 2.95996V9.04004H17.04C17.5701 9.04006 17.9998 9.47002 18 10C18 10.5302 17.5702 10.9599 17.04 10.96H10.96V17.04C10.9599 17.5702 10.5302 18 10 18C9.46984 18 9.04006 17.5702 9.04004 17.04V10.96H2.95996C2.42979 10.9599 2 10.5302 2 10C2.00024 9.47002 2.42993 9.04006 2.95996 9.04004H9.04004V2.95996C9.04006 2.4298 9.46984 2.00002 10 2Z" fill="#00AAA1"/>
</g>
</svg>
